<svg width="42" height="41" viewBox="0 0 42 41" fill="none" xmlns="http://www.w3.org/2000/svg">
<path d="M8.44667 17.6303C11.8067 24.0352 17.22 29.2632 23.8233 32.5448L28.9567 27.5658C29.5867 26.9547 30.52 26.7511 31.3367 27.0226C33.95 27.86 36.7733 28.3127 39.6667 28.3127C40.95 28.3127 42 29.3311 42 30.5759V38.4744C42 39.7192 40.95 40.7376 39.6667 40.7376C17.7567 40.7376 0 23.5147 0 2.2632C0 1.01844 1.05 0 2.33333 0H10.5C11.7833 0 12.8333 1.01844 12.8333 2.2632C12.8333 5.09221 13.3 7.80805 14.1633 10.3428C14.42 11.135 14.2333 12.0176 13.58 12.6513L8.44667 17.6303Z" fill="#1F2C8F"/>
</svg>
