<svg width="46" height="46" viewBox="0 0 46 46" fill="none" xmlns="http://www.w3.org/2000/svg">
<path d="M23 23C19.8375 23 17.1302 21.874 14.8781 19.6219C12.626 17.3698 11.5 14.6625 11.5 11.5C11.5 8.3375 12.626 5.63021 14.8781 3.37813C17.1302 1.12604 19.8375 0 23 0C26.1625 0 28.8698 1.12604 31.1219 3.37813C33.374 5.63021 34.5 8.3375 34.5 11.5C34.5 14.6625 33.374 17.3698 31.1219 19.6219C28.8698 21.874 26.1625 23 23 23ZM0 46V37.95C0 36.3208 0.419751 34.8239 1.25925 33.4592C2.09875 32.0946 3.21233 31.0519 4.6 30.3313C7.57083 28.8458 10.5896 27.7322 13.6562 26.9905C16.7229 26.2487 19.8375 25.8769 23 25.875C26.1625 25.8731 29.2771 26.2449 32.3437 26.9905C35.4104 27.7361 38.4292 28.8497 41.4 30.3313C42.7896 31.05 43.9041 32.0927 44.7436 33.4592C45.5831 34.8258 46.0019 36.3228 46 37.95V46H0Z" fill="#1F2C8F"/>
</svg>
