<svg width="46" height="37" viewBox="0 0 46 37" fill="none" xmlns="http://www.w3.org/2000/svg">
<path d="M41.4 0H4.6C2.07 0 0.023 2.06793 0.023 4.59541L0 32.1678C0 34.6953 2.07 36.7632 4.6 36.7632H41.4C43.93 36.7632 46 34.6953 46 32.1678V4.59541C46 2.06793 43.93 0 41.4 0ZM40.48 9.76524L24.219 19.9211C23.483 20.3806 22.517 20.3806 21.781 19.9211L5.52 9.76524C5.28937 9.6359 5.08741 9.46116 4.92634 9.25159C4.76527 9.04203 4.64844 8.80199 4.58292 8.54601C4.5174 8.29003 4.50456 8.02343 4.54516 7.76234C4.58576 7.50126 4.67897 7.25112 4.81915 7.02707C4.95932 6.80301 5.14355 6.6097 5.36067 6.45883C5.57779 6.30796 5.8233 6.20267 6.08234 6.14934C6.34138 6.096 6.60855 6.09573 6.8677 6.14853C7.12684 6.20134 7.37257 6.30612 7.59 6.45654L23 16.0839L38.41 6.45654C38.6274 6.30612 38.8732 6.20134 39.1323 6.14853C39.3914 6.09573 39.6586 6.096 39.9177 6.14934C40.1767 6.20267 40.4222 6.30796 40.6393 6.45883C40.8565 6.6097 41.0407 6.80301 41.1809 7.02707C41.321 7.25112 41.4142 7.50126 41.4548 7.76234C41.4954 8.02343 41.4826 8.29003 41.4171 8.54601C41.3516 8.80199 41.2347 9.04203 41.0737 9.25159C40.9126 9.46116 40.7106 9.6359 40.48 9.76524Z" fill="#1F2C8F"/>
</svg>
