<svg width="38" height="46" viewBox="0 0 38 46" fill="none" xmlns="http://www.w3.org/2000/svg">
<path d="M19 21.85C17.2003 21.85 15.4743 21.2442 14.2018 20.1659C12.9292 19.0875 12.2143 17.625 12.2143 16.1C12.2143 14.575 12.9292 13.1125 14.2018 12.0341C15.4743 10.9558 17.2003 10.35 19 10.35C20.7997 10.35 22.5257 10.9558 23.7982 12.0341C25.0708 13.1125 25.7857 14.575 25.7857 16.1C25.7857 16.8551 25.6102 17.6028 25.2692 18.3004C24.9282 18.9981 24.4283 19.6319 23.7982 20.1659C23.1681 20.6998 22.4201 21.1233 21.5968 21.4123C20.7735 21.7013 19.8911 21.85 19 21.85ZM19 0C13.9609 0 9.12816 1.69624 5.56497 4.71558C2.00178 7.73492 0 11.83 0 16.1C0 28.175 19 46 19 46C19 46 38 28.175 38 16.1C38 11.83 35.9982 7.73492 32.435 4.71558C28.8718 1.69624 24.0391 0 19 0Z" fill="#1F2C8F"/>
</svg>
